<svg xmlns="http://www.w3.org/2000/svg" xmlns:xlink="http://www.w3.org/1999/xlink" width="670.41258" height="316.6925" viewBox="0 0 670.41258 316.6925">
  <defs>
    <style>
      .cls-1 {
        fill: url(#linear-gradient);
      }

      .cls-2 {
        fill: #fff;
      }

      .cls-3 {
        fill: url(#linear-gradient-2);
      }

      .cls-10, .cls-11, .cls-12, .cls-13, .cls-14, .cls-4, .cls-5, .cls-6, .cls-7, .cls-8, .cls-9 {
        fill: #4d4d4d;
      }

      .cls-5 {
        font-size: 87.4503px;
      }

      .cls-10, .cls-11, .cls-12, .cls-13, .cls-14, .cls-5, .cls-6, .cls-7, .cls-8, .cls-9 {
        font-family: ForteMT, Forte;
      }

      .cls-6 {
        font-size: 75.23671px;
      }

      .cls-7 {
        font-size: 68.65664px;
      }

      .cls-8 {
        font-size: 48.23298px;
      }

      .cls-9 {
        font-size: 52.43631px;
      }

      .cls-10 {
        font-size: 63.5004px;
      }

      .cls-11 {
        font-size: 38.87771px;
      }

      .cls-12 {
        font-size: 54.43779px;
      }

      .cls-13 {
        font-size: 52.26749px;
      }

      .cls-14 {
        font-size: 43.08664px;
      }
    </style>
    <linearGradient id="linear-gradient" y1="183.06188" x2="553.77989" y2="183.06188" gradientUnits="userSpaceOnUse">
      <stop offset="0" stop-color="#e85b20"/>
      <stop offset="0.15445" stop-color="#ea6d1f"/>
      <stop offset="0.46422" stop-color="#f19d1e"/>
      <stop offset="0.47207" stop-color="#f19e1e"/>
      <stop offset="1" stop-color="#edbc32"/>
    </linearGradient>
    <linearGradient id="linear-gradient-2" x1="402.93255" y1="169.30404" x2="670.41258" y2="169.30404" gradientUnits="userSpaceOnUse">
      <stop offset="0" stop-color="#edbc32"/>
      <stop offset="0.78646" stop-color="#ed7c25"/>
      <stop offset="1" stop-color="#ed6a21"/>
    </linearGradient>
  </defs>
  <g id="Layer_2" data-name="Layer 2">
    <g id="Layer_1-2" data-name="Layer 1">
      <g>
        <path class="cls-1" d="M147.86156,239.54085c-14.99555-1.75909-26.47153-6.56973-34.898-10.102-19.52085-8.183-32.261-18.179-32.14286-18.36737.17344-.27661,24.81611,25.76132,62.449,33.06125,30.31567,5.88052,37.68167-6.48551,86.32654-4.59186a289.84639,289.84639,0,0,1,31.27069,2.71439c2.2984.33218,9.62011,1.42962,20.1579,3.7142a381.90439,381.90439,0,0,1,44.34692,12.51019,557.11859,557.11859,0,0,0,62,12,557.14991,557.14991,0,0,0,69,5q-1.63761-1.76518-3.35321-3.53082a209.282,209.282,0,0,0-19.54474-17.71408,438.49454,438.49454,0,0,1-64.28571-2.7551c-44.963-5.30023-90.63571-17.91937-135-18.36734-4.18106-.0422-7.77557-.10757-12.85711,0C180.10179,233.985,172.48054,242.42885,147.86156,239.54085Zm258.06121-56.02042q-.4605-3.25593-.77929-6.72631a135.40215,135.40215,0,0,1-.1391-22.66141,185.92663,185.92663,0,0,1-42.63263,9.34692c-13.6983,1.3443-26.7309,1.07376-45-1-37.06564-4.20737-40.86319-9.61426-71-14-18.7142-2.72345-62.801-9.13928-95,0a144.39888,144.39888,0,0,1-43.1134,6.25885,97.21013,97.21013,0,0,1-11.82538-.60577c-33.93186-4.26569-62.7703-20.6185-63.79779-21.21756-.91609-.53409-1.40233-.83243-1.40628-.82327-.00475.011.94078.68344.94143.68408l.001.00085C47.405,143.80925,70.18739,156.69634,99.18806,159.6429a97.02846,97.02846,0,0,0,12.17334.39142c27.96961-.39688,55.71936-3.67056,65.01035-4.55469,28.10751-2.67471,50.17975,1.01837,68,4,32.43118,5.4263,33.29694,11.128,71,17,19.644,3.05945,38.11212,4.42453,47.76306,5.13791C380.21605,182.88014,394.80608,183.35417,405.92277,183.52043ZM61.535,211.98984c52.47292-43.57994,124.39685-39.06736,146.93878-37.65307.00008,0,54.32428,3.90461,117.0674,29.63694,2.66082,1.09126,4.68858,1.95279,5.99382,2.50592a506.79564,506.79564,0,0,0,55.10205,20.20408c14.698,4.43775,26.92872,7.39271,34.89795,9.18368a121.27936,121.27936,0,0,1-14.52728-33.75009,119.12714,119.12714,0,0,1-2.59687-12.99453c-5.65645.12273-14.4283.21612-25.12074-.09212-80.5503-2.32212-106.0739-22.70978-157.95919-27.551-14.0922-1.31488-94.20941-13.17936-154.28571,36.7347-38.79462,32.23228-52.14748,75.78823-51.42857,76.22449C16.27273,274.837,28.63556,239.31359,61.535,211.98984ZM95.5146,283.62248c-16.8096,13.65607-32.61484,32.5784-32.14285,33.06125.47644.48737,17.05212-19.45242,38.57144-33.97961,51.92444-35.053,115.80557-27.2338,140.51019-23.87756,47.12116,6.40164,54.379,15.81561,103.77549,34.898,43.17437,16.67861,109.70172,29.92471,207.551,8.40426a132.21122,132.21122,0,0,1-62.449-7.34695,127.76669,127.76669,0,0,1-25.7143-13.26834,543.91991,543.91991,0,0,1-80.96655-4.53754c-78.24591-10.27805-86.87073-28.8609-144.03342-31.9249C220.23735,243.9587,149.03575,240.1422,95.5146,283.62248ZM268.16767,74.23473c-39.41273-2.24227-59.60815-3.27779-83.57143.91837-44.53056,7.79766-50.24914,21.464-79.898,22.95918C44.76951,101.13442.5185,48.70879.0044,49.43882c-.605.85912,61.24068,72.66817,128.57143,62.449,21.66972-3.28894,31.10325-13.131,65.20408-16.53061,5.941-.59228,27.636-2.48487,67.95919,4.59184,29.00794,5.09087,145.37479,28.46311,150.61224,23.87755a11.00558,11.00558,0,0,0,.91837-.91837c2.46469-2.82648,2.55421-6.34138,2.7551-8.2653a24.65679,24.65679,0,0,1,3.593-10.15546c11.53211-17.90312,20.874-26.95073,25.79478-31.17107,14.29769-12.26251,22.04076-17.44893,22.04081-17.449,2.24654-1.50477,3.8085-2.47409,3.67347-2.75511-.66843-1.391-36.32831,20.59559-72.79109,29.3393C361.2231,91.35115,354.16029,79.12707,268.16767,74.23473Z"/>
        <g>
          <path class="cls-2" d="M632.473,80.06446a130.77744,130.77744,0,1,0-6.43142,184.83381A130.78039,130.78039,0,0,0,632.473,80.06446Z"/>
          <path class="cls-3" d="M634.47343,78.15814a133.68676,133.68676,0,1,0-6.57622,188.85728A133.82961,133.82961,0,0,0,634.47343,78.15814Zm-2.28729,2.13041c53.38778,57.18449,36.10085,142.11567-6.42336,184.44067-33.13947,32.98426-76.66926,35.17715-84.84,35.44217-4.8235.15644-61.64277,1.09746-99.76079-41.85455-41.07015-46.27856-50.05041-131.81374,6.4187-184.44114A130.69773,130.69773,0,0,1,632.18614,80.28855Z"/>
          <path class="cls-4" d="M627.18684,187.22316s-20.19341-43.26733-25.10206-49.17594c-13.31832,1.939-42.17174,6.67282-54.81236,10.19688-1.4326,11.21595-6.75073,53.07484-7.15333,58.69342,6.94105,4.41509,42.14148,21.18593,48.94022,23.71757C595.19656,225.13027,624.1173,191.49987,627.18684,187.22316Zm-.151-112.5749c-.39072-.38858-.77309-.77752-1.15039-1.15964a129.98636,129.98636,0,0,0-50.54868-29.22389l-7.039,12.37986s29.22671,15.55225,42.81652,31.8476l30.86016,6.49822A103.509,103.509,0,0,0,627.03582,74.64826Zm-124.085,37.1047s4.84522-34.36452,10.86486-45.42191c-5.87065-2.18616-33.14815-6.78624-39.23117-2.92908a138.20916,138.20916,0,0,0-36.96291,39.92213c3.4901,7.63408,9.23739,19.41445,14.51681,29.61493C463.3721,127.90275,495.47525,113.6841,502.95083,111.753Zm-15.2317,117.04585s-28.71191-20.40294-43.37438-36.77075c-5.00893,3.06072-15.90591,10.40131-22.16192,19.26074a153.391,153.391,0,0,0,23.3354,45.98421c14.77911,6.98221,32.91619,13.45617,41.29647,12.49438C486.53524,261.94762,486.78431,249.63184,487.71913,228.79881Zm47.58873,62.47786a80.9986,80.9986,0,0,0,2.91351,8.7607,134.67011,134.67011,0,0,0,64.232-17.315q1.998-1.35771,3.99594-2.71536,2.15327-2.08449,4.38826-4.1873c1.68062-1.58153,3.54936-3.31474,5.51687-5.097a73.09766,73.09766,0,0,1-30.31324,1.66023C561.68273,288.85486,535.30786,291.27667,535.30786,291.27667ZM658.13875,189.20342c-.02162,8.43367,1.2548,23.50316-6.47191,42.1104-.17276.41622-.34883.83427-.532,1.25591a1.31131,1.31131,0,0,0,.14349.06308,131.10429,131.10429,0,0,0,14.546-85.01239l-.90876-1.30289S667.16833,171.50394,658.13875,189.20342Z"/>
          <path class="cls-4" d="M451.00947,132.39411l.19864-.411.41616-.18827h0c11.29417-5.051,43.24426-19.22936,51.01363-21.25431l.60852-.15558.48834.39132h0c10.47336,8.41572,44.33427,36.50217,44.33933,36.50423l.52842.44034-.08775.681-1.24234-.15782,1.24234.15782h0c-1.43018,11.19283-6.75376,53.12477-7.14622,58.62538l-.04125.55854-.43958.34008h0c-4.27274,3.28718-17.265,8.64845-29.44967,13.395h0c-12.14387,4.71471-23.29642,8.65665-23.30285,8.66026l-.612.21757-.532-.377h0c-.03035-.02931-27.02882-19.19677-42.19028-35.43833h0q-.70925-.76035-1.39045-1.51945l-.302-.33831-.01573-.452h0c.0319-.09532-1.50921-40.02581,7.91673-59.67956Zm-4.97616,37.32646c-.69241,10.79463-.50248,19.74833-.44864,21.81376h0c.34061.37767.69167.75726,1.04861,1.13992h0c7.42135,7.95611,17.89058,16.75583,26.486,23.53892h0c7.18983,5.67313,13.05487,9.9341,14.79626,11.18823h0c2.48849-.88878,12.18129-4.36628,22.6141-8.4139h0c11.61662-4.48963,24.296-9.82086,28.38763-12.71517h0c.65389-7.372,5.52048-45.70679,7.026-57.50525h0c-4.26713-3.53587-33.12276-27.45155-43.27673-35.63595h0c-8.11084,2.3637-38.35178,15.72039-49.59612,20.76046h0c-4.33566,9.24622-6.267,23.69974-7.03709,35.829Z"/>
          <path class="cls-4" d="M626.04159,264.89827A130.3858,130.3858,0,0,0,655.59027,224.106c4.72261-15.32792,3.78048-27.72291,3.80189-34.89861l.00162-1.17766-32.82-2.09825-.4047.5621c-2.87909,4.03523-31.14641,36.9107-37.67638,42.98468-.09142.08537-.18312.166-.27023.24343l-.50867.4579.10835.67168c.69141,4.23142-.03235,14.73272-.97459,23.965-.93171,9.26658-2.04514,17.38116-2.04671,17.3973l-.16726,1.20581,1.20216.20145a73.271,73.271,0,0,0,26.16131-.59887c-.22265.20644-.44332.41227-.66036.61473-2.2416,2.09094-4.22026,3.98322-5.759,5.4694q-1.56211,1.8082-3.12427,3.61635c3.37572-2.08264,7.46151-4.78017,11.94382-8.152A150.06741,150.06741,0,0,0,626.04159,264.89827Zm-1.23939-2.72506c-2.87771,2.68429-5.26549,4.67183-6.93208,5.98477-.77448.61141-1.38475,1.07278-1.81974,1.3915l-.01852-.03372a72.32057,72.32057,0,0,1-28.58712,1.82039c.34425-2.6102,1.17487-9.096,1.89632-16.26721.89186-8.94053,1.64619-18.80818,1.04467-23.9366,6.92341-6.58189,32.75839-36.592,37.39509-42.61308l29.10825,1.86027c.07121,8.65556.89018,22.86709-6.33826,40.35636A158.96167,158.96167,0,0,1,624.8022,262.17321Z"/>
          <path class="cls-4" d="M664.79553,148.33846l-1.07269-1.54181-.04747-.28756c-1.87233-12.22324-7.54593-24.964-12.76841-34.60452a162.03061,162.03061,0,0,0-9.94891-16.1788l-.05061-.06746-.03952-.07909-.00886-.01645c0-.00008-1.65389-3.07129-3.71483-6.10041a105.774,105.774,0,0,0-12.65-14.291l1.83673-.91837c1.65591,1.54417,3.89819,3.71579,6.42857,6.42858A131.21889,131.21889,0,0,1,654.054,111.20285a127.84859,127.84859,0,0,1,11.811,36.70042Z"/>
          <path class="cls-4" d="M605.68117,117.71005c-2.35377,10.78917-4.80314,19.99669-4.8086,20.01522l-.16483.62722.412.495c2.22476,2.63684,8.61294,15.05757,14.23362,26.55679,5.65506,11.542,10.687,22.32791,10.69761,22.35051l.31444.67436,31.69316,2.02351.82135.05683.37586-.73637c6.67787-13.15234,7.30117-30,7.13634-38.39768a130.57,130.57,0,0,0-6.592-26.72217,168.91646,168.91646,0,0,0-16.81121-30.39506l-.284-.39246-32.951-6.93838.11013,1.64985C610.268,94.51543,608.037,106.94884,605.68117,117.71005Zm2.445.53272c2.18-10.03607,4.29292-21.31743,4.28522-28.19435l28.82388,6.06926a168.04059,168.04059,0,0,1,9.67166,15.7869c5.22176,9.6424,10.89609,22.38126,12.76036,34.52627-.00128.00119.13565,1.52734.2056,4.13324.06921,2.608.07029,6.27083-.21107,10.477-.53825,8.17776-2.15073,18.39816-6.27158,26.85965l-29.38284-1.87717c-1.18482-2.53121-5.57149-11.85418-10.40625-21.72269-5.43572-11.061-11.28638-22.62666-14.14983-26.52945C604.03187,135.55709,606.1141,127.4752,608.12621,118.24277Z"/>
          <path class="cls-4" d="M512.71452,65.735l.22143-.40887.4286-.16429h0c34.37848-13.19158,54.9573-9.78392,55.14087-9.75219l.20058.03556.17941.09513h0c.05637.03809,26.35184,13.994,40.90575,29.56907h0c.79926.85684,1.56308,1.71784,2.28278,2.58271l.26323.3137.02414.40851h0c.41209,6.607-1.87093,18.94921-4.23127,29.82853h0c-2.36886,10.85122-4.831,20.11536-4.83339,20.128l-.214.79932-.817.11629h0c-13.27516,1.92934-42.16584,6.67712-54.65763,10.16483l-.62954.17518-.50644-.41676h0c-.04446-.037-33.87321-28.099-44.30682-36.48056l-.5543-.447.09966-.70246h0c.03959-.0903,4.77143-34.28651,11.00394-45.84476Zm-5.35963,27.69727c-1.62709,8.26-2.73338,15.55793-3.06216,17.7944h0c10.25894,8.26987,39.122,32.18964,43.27894,35.63766h0c12.82077-3.46906,40.05383-7.954,53.512-9.93631h0c.64211-2.46255,2.65236-10.30009,4.59807-19.21728h0c2.30438-10.52194,4.48613-22.64263,4.20455-28.73108h0q-.91916-1.07806-1.92753-2.16106h0c-7.02451-7.53457-17.1103-14.83389-25.41947-20.21417h0c-7.50386-4.86078-13.53531-8.1541-14.64674-8.754h0c-.42661-.059-1.54151-.19512-3.36154-.28252h0c-7.12339-.33745-24.61725.16492-49.83085,9.7673h0c-2.78454,5.379-5.45288,16.4286-7.34532,26.09709Zm93.51833,44.29492,1.21155.32194-1.21155-.32194Z"/>
          <path class="cls-4" d="M486.46586,228.74385l.0372-.83985.79831-.28535h0c.02245-.0069,11.12813-3.93528,23.22888-8.63172h0c12.05893-4.66183,25.26651-10.22882,28.8189-13.0372l.69649-.53992.74564.47207h0c6.712,4.28652,42.103,21.155,48.70293,23.59982l.68583.258.11494.71752h0c.76211,4.8995-.02244,15.26266-.952,24.61117h0c-.94076,9.31475-2.059,17.47676-2.06081,17.48462l-.07806.55545-.46241.31478h0A121.68264,121.68264,0,0,1,535.42189,292.525l-.177.01666-.17711-.036h0c-.09146-.02508-27.3632-5.34548-49.00959-21.73952l-.47193-.36067-.0241-.59252h0c-.28027-7.89023-.03075-20.22061.90369-41.06913Zm1.2545.05507,1.24967.057-1.24967-.057Zm1.21115.89936c-.87955,19.79174-1.126,31.75985-.88534,39.42818h0c10.4066,7.78071,22.20228,13.00808,31.43928,16.2841h0c4.68566,1.66516,8.7143,2.82658,11.56225,3.571h0c2.30918.60318,3.82936.92733,4.32422,1.0305h0c.4872-.05031,1.95728-.21907,4.22841-.6052h0c8.38186-1.41828,27.3681-5.77865,45.27441-17.74914h0c.26628-1.98263,1.18518-9.00009,1.97281-16.84143h0c.89449-8.7542,1.59149-18.65113,1.07055-23.25855h0c-8.1-3.2292-39.46746-18.1772-47.74437-23.11535h0c-4.87114,3.31172-17.16695,8.37234-28.736,12.87822h0c-10.22731,3.96945-19.74942,7.39325-22.50622,8.3777Z"/>
          <path class="cls-4" d="M539.54758,300.01019l-.1538-.41276a82.204,82.204,0,0,1-2.8535-8.54248l-.15381-.84078-.83692-.16614c-.00435-.00144-1.65127-.32331-4.49985-1.06772-2.85078-.74541-6.87788-1.90638-11.56487-3.57042-9.37756-3.32275-21.39326-8.66187-31.91463-16.63846l-.40182-.30462-.49633.05695c-7.65948.95418-25.7573-5.34292-40.33954-12.25006a152.1726,152.1726,0,0,1-22.945-45.33963L423.283,210.59l-.27115-.24075c-.26416-.22394-2.09744-2.1558-4.24427-4.46055-2.98773-3.203-6.7542-7.28626-8.77494-9.48357l-1.40592-1.523A130.78926,130.78926,0,0,0,539.54758,300.01019ZM442.12729,257.619a128.95666,128.95666,0,0,1-30.73123-55.997c1.77516,1.92354,3.7891,4.09768,5.5402,5.975,1.89834,2.03256,3.419,3.65492,4.13995,4.36595A154.69387,154.69387,0,0,0,444.522,258.03122l.18691.24575.27663.12827c14.65208,6.87565,32.2579,13.32763,41.46168,12.65236,19.43013,14.55206,43.20219,20.2622,47.8196,21.27969.44639,1.7078,1.36968,4.31556,2.156,6.4563A129.16555,129.16555,0,0,1,442.12729,257.619Z"/>
          <path class="cls-4" d="M414.56785,122.82056l1.0324.60257a101.13038,101.13038,0,0,1,8.78444-9.38306c6.31657-5.892,10.91984-8.33448,12.754-9.16421a8.73279,8.73279,0,0,1,.87617-.361l.43487-.14316.23791-.39121a138.67424,138.67424,0,0,1,23.538-28.81672,132.5667,132.5667,0,0,1,13.089-10.74365l.47051-.33829.88584-10.95672a131.17861,131.17861,0,0,0-62.10317,69.69547Zm4.08437-6.61648a130.16656,130.16656,0,0,1,55.273-60.18485l-.54182,6.70329a135.49414,135.49414,0,0,0-12.867,10.60888,141.26926,141.26926,0,0,0-23.73924,28.97249c-1.51948.61409-6.7463,3.04216-14.102,9.90349Q420.75741,113.99625,418.65222,116.20408Z"/>
          <path class="cls-4" d="M474.04539,54.525l-.91132,11.2804,2.1217-1.34312c2.23766-1.57586,10.70856-1.61221,18.883-.61663,8.21549.92377,16.54366,2.64491,19.23919,3.65782l.44438.16809.44279-.1709c25.44565-9.76183,43.10128-10.27294,50.26329-9.93031a32.90031,32.90031,0,0,1,3.562.31081l.86332.14516,7.60139-13.3705A131.02914,131.02914,0,0,0,474.04539,54.525Zm99.42388-9.51041-5.844,10.27793c-4.25263-.47914-23.69032-1.77726-53.83056,9.70593-3.45883-1.15993-11.33951-2.724-19.37553-3.64216-7.14524-.74822-14.11332-1.15519-18.42172.11513l.55506-6.87313A129.77522,129.77522,0,0,1,573.46927,45.01454Z"/>
          <path class="cls-4" d="M438.76127,102.80246l-.46718-1.01691-1.06519.34782c-.16626.05576-5.87682,1.98032-14.552,10.07244-2.04812,1.91047-4.2631,4.16606-6.60767,6.81912a131.30762,131.30762,0,0,0-6.42677,80.69938c2.08938,2.26754,4.9264,5.33457,7.29447,7.87327,2.19526,2.35088,3.89372,4.1572,4.41513,4.62744l1.04629.93172.80783-1.14235a51.57764,51.57764,0,0,1,6.93359-7.77,96.318,96.318,0,0,1,14.86009-11.14646l.624-.37974-.02557-.73344c.0027-.02337-.35578-9.94336.43756-22.26281.77966-12.31163,2.759-27.0141,7.23054-36.23689l.27194-.56449-.28908-.5571C447.98365,122.18493,442.23679,110.40906,438.76127,102.80246Zm-1.77317,2.14087c3.4673,7.5162,8.79141,18.41032,13.75336,28.022-8.404,18.267-7.78925,52.9061-7.66443,58.37357a98.60652,98.60652,0,0,0-14.64618,11.07339,56.54831,56.54831,0,0,0-6.389,6.95421c-.79138-.82673-1.97561-2.08242-3.27364-3.47721-2.87791-3.08529-6.47847-6.98609-8.54354-9.2316a130.09,130.09,0,0,1,5.50849-73.39112,100.6824,100.6824,0,0,1,8.65319-9.22811C430.53471,108.30342,435.06232,105.83771,436.9881,104.94333Z"/>
        </g>
      </g>
      <text class="cls-5" transform="matrix(1.82368, 0.15542, -0.08492, 0.99639, 305.90953, 72.80081)">L</text>
      <text class="cls-6" transform="matrix(1.92961, 0.16444, -0.08492, 0.99639, 248.80251, 67.98858)">L</text>
      <text class="cls-7" transform="matrix(1.23741, 0.00032, -0.00026, 1, 184.29047, 68.40493)">A</text>
      <text class="cls-8" transform="matrix(1.83691, -0.25741, 0.13878, 0.99032, 124.28643, 78.01874)">B</text>
      <text class="cls-9" transform="matrix(1.72562, 0.08221, -0.04759, 0.99887, 203.78655, 139.50975)">O</text>
      <text class="cls-10" transform="matrix(1.44869, 0.25255, -0.17174, 0.98514, 260.336, 149.26544)">R</text>
      <text class="cls-11" transform="matrix(2.87061, -0.2006, 0.06971, 0.99757, 148.68807, 143.00722)">F</text>
      <text class="cls-12" transform="matrix(2.41329, 0.20568, -0.08492, 0.99639, 244.61959, 229.04248)">L</text>
      <text class="cls-13" transform="matrix(2.47074, -0.09175, 0.0371, 0.99931, 194.52818, 229.6849)">L</text>
      <text class="cls-14" transform="matrix(1.8581, -0.069, 0.03711, 0.99931, 134.57417, 235.90432)">A</text>
    </g>
  </g>
</svg>
